# xmcd
#
# Track frame offsets:
#	150
#	8216
#	20743
#	30710
#	41241
#	54121
#	62331
#	71938
#	82973
#	98192
#	106080
#	114848
#	125243
#	130741
#
# Disc length: 1866 seconds
# Revision: 0
# Processed by: cddbd v1.5.2PL0 Copyright (c) Steve Scherf et al.
# Submitted via: dBpowerAMP V12.0
#
DISCID=b507480e
DTITLE=Chet Atkins - Christmas With Chet Atkins
DYEAR=1997
DGENRE=Country
TTITLE0=Jingle Bell Rock
TTITLE1=Winter Wonderland
TTITLE2=Jolly Old St. Nicholas
TTITLE3=White Christmas
TTITLE4=Blue Christmas
TTITLE5=Jingle Bells
TTITLE6=Silver Bells
TTITLE7=Little Drummer Boy
TTITLE8=Medley: The Coventry Carol- God Rest Ye Merry Gentlemen
TTITLE9=The First Noel
TTITLE10=Hark! The Herald Angels Sing
TTITLE11=O Come, All Ye Faithful
TTITLE12=Deck The Halls
TTITLE13=Silent Night
EXTD=
EXTT0=
EXTT1=
EXTT2=
EXTT3=
EXTT4=
EXTT5=
EXTT6=
EXTT7=
EXTT8=
EXTT9=
EXTT10=
EXTT11=
EXTT12=
EXTT13=
PLAYORDER=
